<mxfile host="app.diagrams.net" modified="2024-03-09T13:21:04.241Z" agent="Mozilla/5.0 (Windows NT 10.0; Win64; x64) AppleWebKit/537.36 (KHTML, like Gecko) Chrome/122.0.0.0 Safari/537.36" version="24.0.2" etag="EKs0np9Z1vTszLYwci_P" type="github">
  <diagram name="第 1 页" id="Uj0Uj4o8aCDhshB4VJA2">
    <mxGraphModel>
      <root>
        <mxCell id="0" />
        <mxCell id="1" parent="0" />
      </root>
    </mxGraphModel>
  </diagram>
</mxfile>
